<svg width="23" height="25" viewBox="0 0 23 25" fill="none" xmlns="http://www.w3.org/2000/svg">
<path d="M11.9085 18.1637C12.7552 18.1736 13.4325 18.8795 13.4217 19.7407L13.4212 19.7754C13.4104 20.6348 12.7183 21.3246 11.8731 21.3168C9.10786 21.292 8.83655 21.2842 4.70664 21.232C2.38772 21.2024 0.533631 19.2679 0.563301 16.9096L0.627002 11.8458C0.646496 10.2963 1.4895 8.87726 2.82958 8.1377L10.8474 3.7154L11.2005 4.1912C12.0121 5.1775 11.8923 6.64522 10.9322 7.48413L9.50453 8.73125L19.2167 8.8513C20.063 8.86174 20.7399 9.56768 20.7291 10.4283V10.4289C20.7183 11.2901 20.0228 11.9801 19.1761 11.9703L13.2983 11.902C14.1267 11.9324 14.7825 12.6298 14.7719 13.4776L14.7714 13.5142C14.7606 14.3755 14.0655 15.0657 13.2188 15.0559L12.7253 15.0501C13.5721 15.0599 14.2495 15.7659 14.2386 16.6275L14.2386 16.6311C14.2277 17.4924 13.5329 18.1826 12.686 18.1728L11.9085 18.1637Z" fill="#F7CAA5"/>
<path d="M13.7809 19.7796L13.7813 19.7449C13.7892 19.2741 13.6361 18.8176 13.3515 18.4643C14.075 18.1895 14.602 17.4756 14.6127 16.6319C14.6158 16.1145 14.4269 15.6184 14.0886 15.2561C14.7049 14.934 15.1288 14.2786 15.1384 13.5185L15.1389 13.4818C15.1503 13.0758 15.036 12.6776 14.8142 12.3516L19.1707 12.4022C20.2249 12.4145 21.0941 11.5302 21.1078 10.4424C21.1215 9.35563 20.2755 8.45624 19.2222 8.4434L10.5667 8.33401L11.1685 7.80702C11.709 7.34521 12.0495 6.66017 12.109 5.91581C12.1643 5.18613 11.94 4.4649 11.4895 3.92347L11.1422 3.45539C11.0303 3.30432 10.8365 3.25934 10.677 3.34717L2.65494 7.76943C1.18911 8.57807 0.261257 10.1384 0.239837 11.8411L0.176135 16.9049C0.14366 19.4864 2.17387 21.6126 4.69683 21.6447C5.84058 21.6592 6.69056 21.6701 7.37721 21.6791C9.18854 21.7027 9.8578 21.7113 11.8577 21.7293C12.9094 21.7391 13.7672 20.8643 13.7809 19.7796ZM7.39073 20.8538C6.70408 20.8448 5.85206 20.8337 4.70833 20.8192C2.60269 20.7923 0.907445 19.0405 0.934197 16.9139L0.9979 11.8501C1.01544 10.4562 1.78344 9.17481 2.9959 8.50592L10.7424 4.23429L10.9045 4.45126C10.9085 4.45655 10.9133 4.46204 10.9175 4.46733C11.2328 4.8413 11.3908 5.34164 11.3537 5.84878C11.311 6.36655 11.0724 6.84233 10.6956 7.16231L9.26807 8.40943C9.14294 8.51865 9.0942 8.70133 9.14596 8.86621C9.19791 9.0309 9.33916 9.142 9.49916 9.14405L19.2113 9.26409C19.8473 9.27188 20.3581 9.80173 20.3501 10.434C20.3422 11.0663 19.8176 11.5841 19.1811 11.5767L13.3065 11.5085C13.2923 11.5083 13.2783 11.5071 13.2638 11.507C13.2577 11.5069 13.2516 11.5078 13.2455 11.5078L10.7332 11.4786C10.524 11.4761 10.3521 11.659 10.3492 11.887C10.3463 12.1149 10.5136 12.3017 10.7229 12.3041L13.2862 12.3339C13.9044 12.3411 14.3889 12.8575 14.3812 13.473L14.3807 13.5097C14.3728 14.142 13.8602 14.6628 13.2239 14.6554L10.9328 14.6288C10.7234 14.6263 10.5517 14.8092 10.5488 15.0372C10.5459 15.2651 10.713 15.4519 10.9224 15.4543L12.7199 15.4752C13.3563 15.4826 13.8677 15.9897 13.8597 16.6257C13.8518 17.258 13.3277 17.7529 12.6914 17.7455L10.9956 17.7258C10.7864 17.7234 10.6144 17.9062 10.6116 18.1342C10.6087 18.3621 10.776 18.5489 10.9852 18.5513L11.9035 18.562C12.5399 18.5694 13.0315 19.1039 13.0236 19.7361L13.0232 19.7708C13.0152 20.4012 12.5023 20.9097 11.8676 20.9039C9.86892 20.886 9.20116 20.8772 7.39073 20.8538Z" fill="#083863"/>
<path d="M19.0735 7.13019C19.0706 7.35813 19.2379 7.54494 19.4472 7.54735C20.8972 7.56421 22.0565 8.85851 22.0366 10.4385C22.0168 12.0182 20.8253 13.2852 19.3752 13.2684C19.1659 13.2659 18.994 13.4488 18.9911 13.6767C18.9883 13.9049 19.1556 14.0915 19.3648 14.0939C21.2333 14.1156 22.7687 12.4829 22.7943 10.4473C22.8199 8.41139 21.3261 6.74351 19.4575 6.72182C19.2483 6.71939 19.0764 6.90224 19.0735 7.13019Z" fill="#083863"/>
</svg>
